<svg width="132" height="39" viewBox="0 0 132 39" fill="none" xmlns="http://www.w3.org/2000/svg">
<g clip-path="url(#clip0_2_61)" filter="url(#filter0_d_2_61)">
<path d="M125.75 26.7845C125.213 26.7897 124.701 27.007 124.324 27.3891C123.948 27.7711 123.738 28.2867 123.74 28.8231C123.743 29.3595 123.958 29.873 124.338 30.2514C124.718 30.6298 125.233 30.8422 125.769 30.8422C126.306 30.8422 126.82 30.6298 127.201 30.2514C127.581 29.873 127.796 29.3595 127.798 28.8231C127.801 28.2867 127.591 27.7711 127.214 27.3891C126.838 27.007 126.325 26.7897 125.789 26.7845H125.75ZM125.75 30.61C125.398 30.6158 125.052 30.5172 124.757 30.3266C124.461 30.136 124.228 29.862 124.088 29.5392C123.948 29.2164 123.907 28.8593 123.97 28.5131C124.033 28.1669 124.197 27.8472 124.441 27.5942C124.686 27.3413 125 27.1666 125.344 27.0923C125.688 27.0179 126.046 27.0471 126.374 27.1764C126.701 27.3056 126.982 27.529 127.183 27.8182C127.383 28.1075 127.493 28.4497 127.499 28.8015V28.8313C127.509 29.2929 127.335 29.7394 127.016 30.0728C126.696 30.4061 126.258 30.599 125.796 30.609H125.75L125.75 30.61ZM117.962 26.2302H113.553V19.3261C113.553 17.6797 113.524 15.5604 111.26 15.5604C108.964 15.5604 108.613 17.3541 108.613 19.2062V26.2298H104.204V12.0321H108.436V13.9723H108.495C108.919 13.2481 109.531 12.6524 110.266 12.2485C111.002 11.8446 111.833 11.6478 112.671 11.6789C117.14 11.6789 117.964 14.618 117.964 18.4416L117.962 26.2302ZM99.2295 10.0913C98.7235 10.0914 98.2288 9.94146 97.808 9.66041C97.3872 9.37937 97.0593 8.97986 96.8655 8.51241C96.6718 8.04496 96.6211 7.53056 96.7197 7.03426C96.8183 6.53796 97.0619 6.08205 97.4196 5.72419C97.7774 5.36633 98.2332 5.12258 98.7294 5.02378C99.2257 4.92497 99.7401 4.97554 100.208 5.1691C100.675 5.36265 101.075 5.6905 101.356 6.11117C101.637 6.53185 101.787 7.02646 101.787 7.53247C101.787 7.86844 101.721 8.20114 101.593 8.51156C101.464 8.82198 101.276 9.10405 101.038 9.34166C100.801 9.57928 100.519 9.76778 100.208 9.8964C99.8981 10.025 99.5655 10.0913 99.2295 10.0913ZM101.434 26.2302H97.0206V12.0321H101.434V26.2302ZM120.16 0.880444H94.8052C94.2297 0.87395 93.6752 1.09619 93.2635 1.49833C92.8518 1.90047 92.6166 2.44961 92.6096 3.02507V28.4846C92.6164 29.0604 92.8514 29.6099 93.2631 30.0124C93.6748 30.415 94.2294 30.6377 94.8052 30.6315H120.16C120.736 30.6388 121.293 30.4167 121.706 30.0142C122.119 29.6116 122.356 29.0615 122.364 28.4846V3.02324C122.356 2.44663 122.119 1.89687 121.706 1.49474C121.292 1.09261 120.736 0.871003 120.16 0.878607V0.880444ZM80.6102 15.4589C78.4059 15.4589 77.0833 16.9307 77.0833 19.0753C77.0833 21.22 78.4054 22.6932 80.6102 22.6932C82.815 22.6932 84.1404 21.2236 84.1404 19.0753C84.1404 16.927 82.8173 15.4589 80.6102 15.4589ZM88.1991 26.222H84.1404V24.3391H84.0802C83.571 25.024 82.9106 25.582 82.1504 25.9698C81.3901 26.3575 80.5506 26.5645 79.6973 26.5747C75.4613 26.5747 72.671 23.5175 72.671 19.1943C72.671 15.2237 75.1403 11.5779 79.1995 11.5779C81.024 11.5779 82.7282 12.0771 83.728 13.4607H83.7859V5.2767H88.1986L88.1991 26.222ZM67.0104 17.4745C67.0189 17.1168 66.9546 16.7611 66.8216 16.429C66.6885 16.0969 66.4894 15.7953 66.2363 15.5424C65.9833 15.2895 65.6815 15.0906 65.3493 14.9577C65.0171 14.8249 64.6614 14.7609 64.3037 14.7696C63.5334 14.7216 62.7751 14.9783 62.1923 15.4843C61.6095 15.9903 61.2489 16.705 61.1883 17.4745H67.0104ZM70.7449 23.766C70.0124 24.6544 69.0913 25.3687 68.0486 25.8573C67.0059 26.3458 65.8676 26.5963 64.7161 26.5907C60.3074 26.5907 56.7778 23.648 56.7778 19.091C56.7778 14.534 60.307 11.5926 64.7161 11.5926C68.8368 11.5926 71.4209 14.5317 71.4209 19.091V20.4733H61.1883C61.3157 21.2572 61.7221 21.9687 62.3327 22.4766C62.9432 22.9846 63.7168 23.2548 64.5108 23.2374C65.1383 23.2335 65.7549 23.0727 66.3044 22.7697C66.8539 22.4667 67.3189 22.031 67.6571 21.5024L70.7449 23.766ZM26.9183 12.0284H31.152V13.9686H31.2121C31.635 13.2442 32.2467 12.6481 32.982 12.2442C33.7172 11.8403 34.5483 11.6436 35.3866 11.6752C39.8572 11.6752 40.6802 14.6166 40.6802 18.4379V26.2238H36.2715V19.321C36.2715 17.6733 36.2412 15.5553 33.9754 15.5553C31.6838 15.5553 31.3302 17.3495 31.3302 19.2012V26.222H26.9215L26.9183 12.0284ZM42.9158 5.27808H47.3244V17.7991L52.3209 12.0206H57.7261L51.9397 18.5936L57.6044 26.2307H52.0633L47.3832 19.2127H47.3253V26.2298H42.9167L42.9158 5.27808ZM20.0651 12.027H24.4738V26.2247H20.0651V12.027ZM22.2695 4.96856C22.7753 4.96865 23.2697 5.11872 23.6902 5.39979C24.1107 5.68087 24.4384 6.08032 24.6319 6.54765C24.8254 7.01498 24.876 7.52919 24.7773 8.02526C24.6785 8.52133 24.4349 8.97699 24.0772 9.33461C23.7196 9.69224 23.2639 9.93577 22.7678 10.0344C22.2717 10.1331 21.7575 10.0824 21.2902 9.8888C20.8229 9.69521 20.4235 9.36742 20.1425 8.94685C19.8615 8.52628 19.7115 8.03184 19.7115 7.52604C19.7115 7.19015 19.7777 6.85754 19.9062 6.54723C20.0348 6.23691 20.2232 5.95495 20.4607 5.71746C20.6983 5.47997 20.9803 5.2916 21.2906 5.1631C21.6009 5.0346 21.9336 4.9685 22.2695 4.96856ZM4.95123 5.2813H9.54037V21.9975H18.0362V26.2325H4.95123V5.2813ZM126.072 28.942C126.147 28.9428 126.222 28.928 126.292 28.8986C126.361 28.8692 126.424 28.8259 126.476 28.7713C126.528 28.7166 126.569 28.6518 126.595 28.581C126.621 28.5101 126.632 28.4346 126.627 28.3592C126.627 27.9459 126.378 27.7485 125.866 27.7485H125.04V29.9124H125.351V28.9691H125.733L125.742 28.9806L126.334 29.9124H126.667L126.029 28.948L126.072 28.942ZM125.712 28.7253H125.352V27.9937H125.809C126.045 27.9937 126.314 28.0323 126.314 28.3413C126.314 28.6968 126.041 28.7253 125.71 28.7253" fill="white" fill-opacity="0.5"/>
</g>
<defs>
<filter id="filter0_d_2_61" x="0.951233" y="0.878601" width="130.847" height="38" filterUnits="userSpaceOnUse" color-interpolation-filters="sRGB">
<feFlood flood-opacity="0" result="BackgroundImageFix"/>
<feColorMatrix in="SourceAlpha" type="matrix" values="0 0 0 0 0 0 0 0 0 0 0 0 0 0 0 0 0 0 127 0" result="hardAlpha"/>
<feOffset dy="4"/>
<feGaussianBlur stdDeviation="2"/>
<feComposite in2="hardAlpha" operator="out"/>
<feColorMatrix type="matrix" values="0 0 0 0 0 0 0 0 0 0 0 0 0 0 0 0 0 0 0.25 0"/>
<feBlend mode="normal" in2="BackgroundImageFix" result="effect1_dropShadow_2_61"/>
<feBlend mode="normal" in="SourceGraphic" in2="effect1_dropShadow_2_61" result="shape"/>
</filter>
<clipPath id="clip0_2_61">
<rect width="122.847" height="30" fill="white" transform="translate(4.95123 0.878601)"/>
</clipPath>
</defs>
</svg>
