<svg width="171" height="39" viewBox="0 0 171 39" fill="none" xmlns="http://www.w3.org/2000/svg">
<g clip-path="url(#clip0_2_63)" filter="url(#filter0_d_2_63)">
<path d="M18.7098 0.878601C20.0878 0.878601 21.3599 0.985664 22.5259 1.30261C23.6919 1.51462 24.646 1.93863 25.494 2.46865C26.342 2.99867 26.978 3.74069 27.402 4.69578C27.8261 5.64875 28.0381 6.81585 28.0381 8.08789C28.0381 9.57087 27.7201 10.844 26.978 11.798C26.342 12.751 25.282 13.599 24.0099 14.235C25.812 14.765 27.19 15.718 28.0381 16.9911C28.8861 18.2631 29.4161 19.8532 29.4161 21.6553C29.4161 23.1382 29.0981 24.4113 28.5681 25.4714C28.0381 26.5314 27.19 27.4854 26.236 28.1215C25.282 28.7585 24.1159 29.2886 22.8439 29.6055C21.5719 29.9225 20.2998 30.1355 19.0278 30.1355H4.82334V0.878601H18.7098ZM17.8617 12.751C19.0278 12.751 19.9818 12.433 20.7238 11.9029C21.4659 11.3729 21.7839 10.4189 21.7839 9.25286C21.7839 8.61684 21.6779 7.98082 21.4659 7.55681C21.2539 7.1328 20.9358 6.81479 20.5118 6.49678C20.0878 6.28477 19.6638 6.07276 19.1338 5.96676C18.6038 5.86076 18.0738 5.86076 17.4377 5.86076H11.2895V12.751H17.8617ZM18.1798 25.2594C18.8158 25.2594 19.4518 25.1534 19.9818 25.0484C20.5118 24.9414 21.0418 24.7293 21.4659 24.4113C21.8899 24.0933 22.2079 23.7753 22.5259 23.2453C22.7379 22.7153 22.9499 22.0782 22.9499 21.3372C22.9499 19.8532 22.5259 18.7932 21.6779 18.0501C20.8298 17.4141 19.6638 17.0971 18.2858 17.0971H11.2895V25.2594H18.1798ZM38.6384 25.1534C39.4864 26.0014 40.7585 26.4254 42.4545 26.4254C43.6206 26.4254 44.6806 26.1074 45.5286 25.5774C46.3766 24.9403 46.9067 24.3053 47.1187 23.6683H52.3128C51.4648 26.2123 50.1928 28.0154 48.4967 29.1804C46.8007 30.2405 44.7866 30.8775 42.3485 30.8775C40.6525 30.8775 39.1684 30.5585 37.7904 30.0285C36.4123 29.4984 35.3523 28.7575 34.3983 27.6974C33.4442 26.7434 32.7022 25.5774 32.2782 24.1983C31.7482 22.8202 31.5362 21.3372 31.5362 19.6401C31.5362 18.0501 31.7482 16.5671 32.2782 15.188C32.8082 13.8099 33.5502 12.645 34.5043 11.5849C35.4583 10.6309 36.6243 9.78288 37.8964 9.25286C39.2744 8.72285 40.6525 8.40484 42.3485 8.40484C44.1506 8.40484 45.7406 8.72285 47.1187 9.46487C48.4967 10.2069 49.5567 11.0549 50.4048 12.327C51.2528 13.493 51.8888 14.87 52.3128 16.3551C52.5248 17.8391 52.6308 19.3232 52.5248 21.0192H37.1544C37.1544 22.7153 37.7904 24.3053 38.6384 25.1534ZM45.3166 14.023C44.5746 13.281 43.4086 12.857 42.0305 12.857C41.0765 12.857 40.3345 13.0679 39.6984 13.387C39.0624 13.705 38.6384 14.128 38.2144 14.553C37.7904 14.9781 37.5784 15.5071 37.4724 16.0371C37.3664 16.5671 37.2604 16.99 37.2604 17.4151H46.8007C46.5886 15.8251 46.0586 14.765 45.3166 14.023ZM60.7931 0.878601V11.9029H60.8991C61.6411 10.6309 62.5952 9.78288 63.7612 9.25286C64.9272 8.72285 65.9873 8.40484 67.1533 8.40484C68.7433 8.40484 70.0154 8.61684 70.9694 9.04086C71.9235 9.46487 72.7715 10.1009 73.3015 10.8429C73.8315 11.5849 74.2555 12.539 74.4675 13.599C74.6795 14.659 74.7855 15.8261 74.7855 17.2031V30.2415H68.9554V18.2631C68.9554 16.4611 68.6373 15.189 68.1073 14.341C67.5773 13.493 66.6233 13.069 65.2452 13.069C63.6552 13.069 62.4892 13.599 61.8531 14.4481C61.1111 15.4011 60.7931 16.9911 60.7931 19.1112V30.2415H54.9629V0.878601H60.7931ZM79.0257 12.115C79.6617 11.1609 80.4037 10.5249 81.3577 9.88782C82.3118 9.35781 83.3718 8.93485 84.5378 8.72179C85.7039 8.50978 86.8689 8.40378 88.036 8.40378C89.096 8.40378 90.156 8.50978 91.3231 8.61578C92.3831 8.72179 93.4432 9.03874 94.2901 9.46381C95.2442 9.88676 95.8802 10.5238 96.5173 11.2659C97.0462 12.0089 97.3642 13.069 97.3642 14.341V25.4714C97.3642 26.4254 97.4702 27.3794 97.5763 28.2285C97.6833 29.0765 97.9992 29.8186 98.3183 30.2415H92.3821C92.169 30.0295 92.063 29.6055 91.9581 29.2886C91.8521 28.9695 91.8521 28.5465 91.8521 28.2285C90.898 29.1815 89.838 29.8186 88.566 30.2415C87.2939 30.6655 86.0219 30.7715 84.7499 30.7715C83.6898 30.7715 82.8418 30.6655 81.8878 30.3486C81.0397 30.1366 80.2977 29.7115 79.5557 29.1815C78.9197 28.6515 78.3897 28.0155 77.9656 27.1685C77.6476 26.3194 77.4356 25.4714 77.4356 24.3053C77.4356 23.1382 77.6476 22.0782 78.0716 21.3372C78.4957 20.5952 79.0257 19.9592 79.6617 19.4292C80.2977 19.0062 81.1457 18.5812 81.9938 18.3691C82.8418 18.1582 83.6898 17.9462 84.6438 17.8391L87.1879 17.5211C88.036 17.4151 88.778 17.3091 89.414 17.2031C90.05 16.9911 90.58 16.7791 91.004 16.4611C91.4281 16.1431 91.5341 15.7191 91.5341 15.083C91.5341 14.447 91.4281 13.917 91.2161 13.599C91.004 13.281 90.686 12.963 90.368 12.751C90.049 12.539 89.626 12.433 89.202 12.328C88.778 12.221 88.248 12.221 87.7179 12.221C86.5519 12.221 85.7039 12.433 85.0679 12.963C84.4318 13.493 84.0078 14.341 83.9018 15.4011H78.0716C78.0716 14.129 78.4957 12.963 79.0257 12.115ZM90.579 20.3832C90.262 20.4892 89.838 20.5952 89.4129 20.7012C88.9889 20.8083 88.5649 20.8083 88.0349 20.9132C87.6119 21.0192 87.0819 21.0192 86.6568 21.1252L85.3848 21.4432C84.9608 21.5492 84.5368 21.7613 84.3248 21.9733C84.0068 22.1853 83.7948 22.5033 83.5828 22.8213C83.2658 23.2453 83.2658 23.6693 83.2658 24.1993C83.2658 24.7293 83.3718 25.1534 83.5838 25.4714C83.7958 25.7894 84.0078 26.1085 84.3258 26.3194C84.6438 26.5314 85.0679 26.6385 85.4919 26.7434C85.9159 26.8484 86.3388 26.8494 86.8689 26.8494C88.036 26.8494 88.8829 26.6385 89.5189 26.3194C90.156 25.8964 90.579 25.4714 90.898 24.9414C91.2161 24.4113 91.4281 23.8813 91.4281 23.3513C91.5341 22.8213 91.5341 22.3983 91.5341 22.0793V19.8532C91.2161 20.0652 90.898 20.2783 90.579 20.3832ZM106.164 8.93485V11.9029H106.27C107.011 10.6309 107.966 9.78288 109.131 9.25286C110.298 8.72285 111.57 8.40484 112.735 8.40484C114.325 8.40484 115.597 8.61684 116.551 9.04086C117.611 9.46487 118.354 10.1009 118.884 10.8429C119.414 11.5849 119.837 12.539 120.155 13.599C120.367 14.659 120.474 15.8261 120.474 17.2031V30.2415H114.644V18.2631C114.644 16.4611 114.325 15.189 113.795 14.341C113.265 13.493 112.311 12.963 110.827 12.963C109.237 12.963 108.07 13.599 107.329 14.553C106.587 15.5071 106.269 17.0971 106.269 19.2172V30.3475H100.438V8.93485H106.164ZM133.51 12.751C132.557 12.751 131.814 12.963 131.179 13.3881C130.543 13.811 130.013 14.341 129.589 15.0841C129.165 15.7201 128.953 16.4621 128.74 17.3102C128.529 18.1593 128.529 18.9002 128.529 19.7493C128.529 20.4903 128.635 21.3394 128.74 22.0803C128.953 22.9294 129.164 23.5644 129.589 24.2004C130.013 24.8375 130.437 25.3675 131.073 25.7904C131.709 26.2145 132.45 26.4275 133.404 26.4275C134.783 26.4275 135.843 26.0035 136.69 25.2604C137.434 24.5195 137.964 23.4594 138.07 22.0803H143.688C143.265 24.9424 142.205 27.0625 140.401 28.5476C138.6 30.0306 136.267 30.7737 133.404 30.7737C131.814 30.7737 130.33 30.4556 129.058 29.9256C127.679 29.3956 126.619 28.6536 125.666 27.6996C124.713 26.7455 123.969 25.5795 123.439 24.3075C122.909 22.9294 122.698 21.5503 122.698 19.9603C122.698 18.2642 122.909 16.7802 123.439 15.4021C123.969 14.0241 124.606 12.752 125.559 11.692C126.513 10.632 127.679 9.88994 128.952 9.25392C130.329 8.72391 131.813 8.4059 133.509 8.4059C134.782 8.4059 135.948 8.6179 137.113 8.93591C138.278 9.25392 139.339 9.78394 140.187 10.4189C141.141 11.056 141.884 11.9029 142.414 12.963C142.944 13.917 143.263 15.189 143.368 16.5671H137.643C137.435 14.023 136.055 12.751 133.51 12.751ZM35.9883 2.89266H47.8607V5.75475H35.9883V2.89266ZM152.486 25.1534C153.335 26.0014 154.712 26.4254 156.302 26.4254C157.469 26.4254 158.529 26.1074 159.376 25.5774C160.225 24.9403 160.755 24.3053 160.966 23.6683H166.055C165.206 26.2123 163.935 28.0154 162.238 29.1804C160.541 30.2405 158.528 30.8775 156.09 30.8775C154.394 30.8775 152.91 30.5585 151.531 30.0285C150.226 29.542 149.061 28.7414 148.14 27.6974C147.186 26.7434 146.444 25.5774 146.02 24.1983C145.49 22.8202 145.278 21.3372 145.278 19.6401C145.278 18.0501 145.49 16.5671 146.02 15.188C146.53 13.8585 147.285 12.6365 148.246 11.5849C149.2 10.6309 150.366 9.78288 151.638 9.25286C153.016 8.72285 154.5 8.40484 156.09 8.40484C157.891 8.40484 159.481 8.72285 160.754 9.46487C162.131 10.2069 163.191 11.0549 164.04 12.327C164.888 13.493 165.524 14.87 165.948 16.3551C166.371 17.8381 166.478 19.4281 166.371 21.1252H151.001C151.001 22.7153 151.638 24.3053 152.486 25.1534ZM159.27 14.023C158.528 13.281 157.361 12.857 155.984 12.857C155.03 12.857 154.287 13.0679 153.651 13.387C153.015 13.705 152.485 14.128 152.168 14.553C151.851 14.9781 151.531 15.5071 151.426 16.0371C151.321 16.5671 151.215 16.99 151.215 17.4151H160.755C160.436 15.8251 159.906 14.765 159.27 14.023Z" fill="white" fill-opacity="0.5"/>
</g>
<defs>
<filter id="filter0_d_2_63" x="0.798523" y="0.878601" width="169.638" height="38" filterUnits="userSpaceOnUse" color-interpolation-filters="sRGB">
<feFlood flood-opacity="0" result="BackgroundImageFix"/>
<feColorMatrix in="SourceAlpha" type="matrix" values="0 0 0 0 0 0 0 0 0 0 0 0 0 0 0 0 0 0 127 0" result="hardAlpha"/>
<feOffset dy="4"/>
<feGaussianBlur stdDeviation="2"/>
<feComposite in2="hardAlpha" operator="out"/>
<feColorMatrix type="matrix" values="0 0 0 0 0 0 0 0 0 0 0 0 0 0 0 0 0 0 0.25 0"/>
<feBlend mode="normal" in2="BackgroundImageFix" result="effect1_dropShadow_2_63"/>
<feBlend mode="normal" in="SourceGraphic" in2="effect1_dropShadow_2_63" result="shape"/>
</filter>
<clipPath id="clip0_2_63">
<rect width="161.638" height="30" fill="white" transform="translate(4.79852 0.878601)"/>
</clipPath>
</defs>
</svg>
