<svg width="130" height="39" viewBox="0 0 130 39" fill="none" xmlns="http://www.w3.org/2000/svg">
<g clip-path="url(#clip0_2_60)" filter="url(#filter0_d_2_60)">
<path d="M41.2695 12.86C42.6647 12.86 43.7957 11.7286 43.7957 10.3331C43.7957 8.9374 42.6647 7.80621 41.2695 7.80621C39.8742 7.80621 38.7433 8.9374 38.7433 10.3331C38.7433 11.7286 39.8742 12.86 41.2695 12.86ZM124.641 21.4936C124.257 21.2234 123.96 21.1786 123.714 21.7034C119.471 30.8929 112.321 26.3072 113.031 26.7107C114.617 25.9853 118.788 22.64 118.158 18.021C117.775 15.1981 115.352 13.946 112.78 14.3943C108.291 15.1769 106.64 20.0188 107.481 24.3055C107.628 25.0417 107.891 25.6488 108.153 26.2436C103.08 30.3688 101.066 22.5507 100.837 21.6164C100.828 21.5664 104.754 18.2941 105.846 10.4962C106.991 2.32359 104.384 0.835493 101.718 0.881922C96.7842 0.967874 95.4511 11.2753 97.2421 19.8657C97.0921 19.9048 96.394 20.2914 95.2723 20.3348C94.4652 17.795 91.0164 15.5688 90.1138 16.4267C87.8547 18.5726 90.6616 22.7681 92.6366 23.0972C91.4502 30.4045 84.0304 28.5948 85.4116 19.4398C87.8278 14.9529 89.6654 8.28121 89.3376 4.25359C89.2214 2.82764 88.1671 0.91716 85.7828 1.01192C81.1969 1.19335 80.6983 11.5036 81.2359 18.8212C81.2092 18.641 80.954 19.7103 79.0747 20.2419C78.6302 17.7745 74.6573 15.2979 73.7221 16.4886C71.9714 18.7172 75.0054 22.6907 76.4426 22.9679C75.2561 30.275 67.8366 28.4653 69.2178 19.3103C71.634 14.8236 73.4714 8.15192 73.1435 4.1243C73.0273 2.69811 71.9733 0.787636 69.5888 0.88216C65.0028 1.06383 64.5042 11.3741 65.0419 18.6917C65.015 18.5086 64.7538 19.6131 62.7978 20.136C62.7323 16.9348 58.745 15.4669 57.7871 16.4883C56.08 18.3091 58.178 22.0448 60.119 22.9679C58.9326 30.275 51.513 28.4653 52.8942 19.3103C55.3104 14.8236 57.148 8.15192 56.82 4.1243C56.704 2.69811 55.6497 0.787636 53.2652 0.88216C48.6795 1.06383 48.3104 11.8924 48.848 19.2098C47.3376 25.6814 42.2721 33.7634 42.9302 17.5736C42.9952 16.4379 43.0661 16.0067 42.5 15.5814C42.0757 15.251 41.1109 15.41 40.5835 15.4231C39.9426 15.4488 39.7819 15.8238 39.6402 16.3907C39.3102 17.8545 39.2509 19.2736 39.2038 21.2098C39.1728 22.1155 39.1002 22.5381 38.7514 23.7731C38.403 25.0079 36.4157 27.2648 35.3276 26.8874C33.818 26.3683 34.3133 22.1069 34.5961 19.1791C34.8319 16.8653 34.0771 15.8262 32.1433 15.4483C31.0111 15.2124 30.3233 15.2486 29.1442 14.8769C28.0292 14.5255 27.7771 12.4164 25.399 13.1193C24.0983 13.5041 24.9345 16.26 24.6219 18.3026C23.085 28.3505 19.8871 28.6264 18.4035 23.7455C25.0852 7.38097 20.3364 0.929541 17.5566 0.929541C14.6614 0.929541 11.3519 2.92383 12.7533 15.6838C12.0719 15.485 11.8623 15.3779 11.1164 15.3779C6.89757 15.3779 4.02328 18.7883 4.02328 22.9955C4.02328 27.2026 6.89781 30.6133 11.1166 30.6133C13.6071 30.6133 15.3557 29.4807 16.68 27.7286C17.544 28.966 18.5961 30.6324 20.5202 30.5574C26.2552 30.3341 27.923 18.57 28.12 17.9138C28.733 18.0083 29.313 18.1872 29.8792 18.2817C30.8226 18.4234 30.8911 18.7967 30.8697 19.7455C30.6197 27.7464 32.0961 30.5479 35.4452 30.5479C37.3111 30.5479 38.9742 28.7145 40.12 27.4036C40.9757 29.1698 42.3392 30.4938 44.1685 30.5476C48.6011 30.6579 50.2983 23.5929 50.1435 24.5226C50.0221 25.2522 51.5816 30.5079 56.145 30.5269C61.7976 30.5507 62.8483 24.3345 62.9735 23.2934C62.9892 23.0862 62.9961 23.1076 62.9735 23.2934L62.9692 23.3564C64.7638 23.0226 65.6897 22.0605 65.6897 22.0605C65.6897 22.0605 67.1307 30.6236 72.4683 30.5272C78.0111 30.4267 79.0564 24.8076 79.1935 23.7119C79.2116 23.4519 79.2223 23.4824 79.1935 23.7119C79.1928 23.7226 79.1921 23.7333 79.1914 23.7441C81.323 22.9686 81.8838 22.1903 81.8838 22.1903C81.8838 22.1903 83.029 30.5831 88.6623 30.6564C93.6823 30.7222 95.5428 25.5814 95.5538 23.4298C96.4004 23.4388 97.9666 22.9274 97.9299 22.8983C97.9299 22.8983 99.7688 30.2364 104.904 30.6133C107.315 30.7903 109.123 29.2567 110.154 28.5572C112.577 30.5193 120.645 33.0255 125.739 24.3886C126.458 23.1491 124.912 21.6848 124.641 21.4936ZM10.913 27.7643C8.45162 27.7643 6.87329 25.4883 6.87329 23.0343C6.87329 20.5805 8.32209 18.3045 10.7835 18.3045C11.8911 18.3045 12.5073 18.4264 13.37 19.1767C13.5264 19.7931 13.9697 21.215 14.1854 21.8607C14.4745 22.7248 14.8183 23.4603 15.165 24.2607C14.6697 26.3138 13.0461 27.7643 10.913 27.7643ZM16.9111 19.2488C16.8088 19.0857 16.8302 19.186 16.7157 19.0319C16.2645 17.8045 15.395 15.065 15.2942 11.9534C15.1804 8.43335 15.7671 4.3074 17.4966 4.3074C18.6685 4.3074 19.914 12.6693 16.9109 19.2488H16.9111ZM51.5685 15.5812C51.2909 13.4924 51.2764 4.18049 53.5119 4.43692C54.7461 4.93692 52.7292 13.7238 51.5685 15.5812ZM67.8921 15.5812C67.6145 13.4924 67.6 4.18049 69.8354 4.43692C71.0697 4.93692 69.0528 13.7238 67.8921 15.5812ZM84.0861 15.711C83.8083 13.6219 83.794 4.31002 86.0292 4.56645C87.2635 5.06645 85.2466 13.8536 84.0861 15.711ZM101.964 3.89192C104.008 3.68002 103.924 12.6053 99.8214 18.24C99.2923 16.2034 98.4811 4.59121 101.964 3.89168V3.89192ZM110.555 23.0972C109.898 19.7812 111.594 17.6033 113.343 17.3645C113.954 17.2669 114.84 17.6629 115.017 18.4031C115.307 19.7981 114.974 21.8674 111.061 24.4929C111.067 24.5153 110.701 23.8357 110.555 23.0972H110.555Z" fill="white" fill-opacity="0.5"/>
</g>
<defs>
<filter id="filter0_d_2_60" x="0" y="0.878601" width="129.951" height="38" filterUnits="userSpaceOnUse" color-interpolation-filters="sRGB">
<feFlood flood-opacity="0" result="BackgroundImageFix"/>
<feColorMatrix in="SourceAlpha" type="matrix" values="0 0 0 0 0 0 0 0 0 0 0 0 0 0 0 0 0 0 127 0" result="hardAlpha"/>
<feOffset dy="4"/>
<feGaussianBlur stdDeviation="2"/>
<feComposite in2="hardAlpha" operator="out"/>
<feColorMatrix type="matrix" values="0 0 0 0 0 0 0 0 0 0 0 0 0 0 0 0 0 0 0.25 0"/>
<feBlend mode="normal" in2="BackgroundImageFix" result="effect1_dropShadow_2_60"/>
<feBlend mode="normal" in="SourceGraphic" in2="effect1_dropShadow_2_60" result="shape"/>
</filter>
<clipPath id="clip0_2_60">
<rect width="121.951" height="30" fill="white" transform="translate(4 0.878601)"/>
</clipPath>
</defs>
</svg>
