<svg width="25" height="25" viewBox="0 0 25 25" fill="none" xmlns="http://www.w3.org/2000/svg">
<path d="M22.9167 12.5C22.9184 13.8721 22.6483 15.2308 22.1218 16.4979C21.5954 17.7649 20.823 18.915 19.8495 19.8818C18.8839 20.8457 17.7378 21.6098 16.4767 22.1306C15.2157 22.6513 13.8644 22.9185 12.5 22.9167C6.74688 22.9167 2.08334 18.2531 2.08334 12.5C2.0797 9.82906 3.10567 7.25947 4.94792 5.32554C5.91997 4.29981 7.09111 3.48322 8.38965 2.92574C9.6882 2.36826 11.0868 2.08162 12.5 2.08335C13.8644 2.08159 15.2157 2.34871 16.4767 2.86945C17.7378 3.3902 18.8839 4.15435 19.8495 5.11825C20.823 6.08503 21.5954 7.23516 22.1218 8.50218C22.6483 9.7692 22.9184 11.128 22.9167 12.5V12.5Z" stroke="#9F9F9F" stroke-width="2" stroke-linecap="round" stroke-linejoin="round"/>
<path d="M22.9167 12.5C21.3969 12.5 17.2042 11.9271 13.4516 13.5745C9.37501 15.3646 6.42344 18.1411 5.13699 19.8682" stroke="#9F9F9F" stroke-width="2" stroke-linecap="round" stroke-linejoin="round"/>
<path d="M8.59375 2.84064C10.224 4.34532 13.7812 8.17657 15.1042 11.9792C16.4271 15.7823 16.9167 20.4583 17.2188 21.7891" stroke="#9F9F9F" stroke-width="2" stroke-linecap="round" stroke-linejoin="round"/>
<path d="M2.16354 11.1979C4.13125 11.3167 9.34011 11.4235 12.6734 10C16.0068 8.57658 18.875 5.95835 19.8589 5.12762" stroke="#9F9F9F" stroke-width="2" stroke-linecap="round" stroke-linejoin="round"/>
<path d="M2.86459 16.4651C3.78246 18.6869 5.43787 20.5246 7.55209 21.6688" stroke="#9F9F9F" stroke-width="2" stroke-linecap="round" stroke-linejoin="round"/>
<path d="M2.08334 12.5C2.0797 9.82906 3.10567 7.25947 4.94792 5.32553" stroke="#9F9F9F" stroke-width="2" stroke-linecap="round" stroke-linejoin="round"/>
<path d="M12.5 2.08335C11.0868 2.08162 9.6882 2.36826 8.38965 2.92574C7.0911 3.48322 5.91997 4.29981 4.94791 5.32554" stroke="#9F9F9F" stroke-width="2" stroke-linecap="round" stroke-linejoin="round"/>
<path d="M16.6667 2.95001C17.8529 3.46904 18.9322 4.2043 19.8495 5.11824C20.823 6.08502 21.5954 7.23515 22.1218 8.50217C22.6483 9.76919 22.9184 11.128 22.9167 12.5C22.9167 13.7828 22.6849 15.0109 22.2604 16.1458" stroke="#9F9F9F" stroke-width="2" stroke-linecap="round" stroke-linejoin="round"/>
<path d="M12.5 22.9167C13.8644 22.9185 15.2157 22.6513 16.4767 22.1306C17.7378 21.6099 18.8839 20.8457 19.8495 19.8818" stroke="#9F9F9F" stroke-width="2" stroke-linecap="round" stroke-linejoin="round"/>
</svg>
