<svg width="25" height="25" viewBox="0 0 25 25" fill="none" xmlns="http://www.w3.org/2000/svg">
<path d="M22.874 14.2906V21.9771H18.4177V14.8052C18.4177 13.0031 17.7729 11.774 16.1604 11.774C14.9292 11.774 14.1958 12.6031 13.874 13.4042C13.7563 13.6906 13.726 14.0896 13.726 14.4906V21.9771H9.26771C9.26771 21.9771 9.32813 9.83125 9.26771 8.57187H13.726V10.4719L13.6969 10.5156H13.726V10.4719C14.3177 9.56041 15.375 8.25729 17.7427 8.25729C20.675 8.25729 22.874 10.174 22.874 14.2906V14.2906ZM4.60521 2.11041C3.08125 2.11041 2.08333 3.11041 2.08333 4.42604C2.08333 5.7125 3.05208 6.7427 4.54688 6.7427H4.57604C6.13125 6.7427 7.09688 5.7125 7.09688 4.42604C7.06979 3.11041 6.13229 2.11041 4.60625 2.11041H4.60521ZM2.34792 21.9771H6.80417V8.57187H2.34792V21.9771Z" fill="#9F9F9F"/>
</svg>
