<?xml version="1.0" encoding="utf-8"?>
<!-- Generator: Adobe Illustrator 24.1.0, SVG Export Plug-In . SVG Version: 6.00 Build 0)  -->
<svg version="1.1" id="Calque_1" xmlns="http://www.w3.org/2000/svg" xmlns:xlink="http://www.w3.org/1999/xlink" x="0px" y="0px"
	 viewBox="0 0 100 100" style="enable-background:new 0 0 100 100;" xml:space="preserve">
<style type="text/css">
	.st0{fill:#FFFFFF;}
</style>
<g>
	<path class="st0" d="M85.8,55.3c-2.4,0-4.5,1.5-5.4,3.7L55,51l7.8-10.4c0.8,0.4,1.7,0.7,2.7,0.7c3.2,0,5.8-2.6,5.8-5.8
		s-2.6-5.8-5.8-5.8c-3.2,0-5.8,2.6-5.8,5.8c0,1.6,0.7,3.1,1.7,4.1l-8.2,10.8L20,39.9c-0.2-3-2.7-5.4-5.8-5.4c-3.2,0-5.8,2.6-5.8,5.8
		s2.6,5.8,5.8,5.8c1.1,0,2.1-0.3,3-0.8l20.7,16.6c-0.4,0.8-0.7,1.7-0.7,2.7c0,3.2,2.6,5.8,5.8,5.8s5.8-2.6,5.8-5.8
		c0-1.3-0.5-2.6-1.3-3.7l6.4-8.5L80,60.6c0,0.2,0,0.3,0,0.5c0,3.2,2.6,5.8,5.8,5.8s5.8-2.6,5.8-5.8S89,55.3,85.8,55.3z M61.4,35.5
		c0-2.3,1.9-4.1,4.1-4.1c2.3,0,4.1,1.9,4.1,4.1s-1.9,4.1-4.1,4.1C63.2,39.6,61.4,37.7,61.4,35.5z M10.1,40.3c0-2.3,1.9-4.1,4.1-4.1
		s4.1,1.9,4.1,4.1c0,0,0,0.1,0,0.2c-0.1,2.2-1.9,4-4.1,4S10.1,42.6,10.1,40.3z M43,68.7c-2.3,0-4.1-1.9-4.1-4.1
		c0-0.9,0.3-1.7,0.8-2.4c0.8-1.1,2-1.7,3.4-1.7c1.1,0,2.1,0.4,2.8,1.1l0,0c0.8,0.8,1.3,1.8,1.3,3C47.1,66.8,45.3,68.7,43,68.7z
		 M46.2,59.8c-1-0.6-2.1-1-3.2-1c-1.6,0-3.1,0.7-4.1,1.8L18.5,44.2c0.7-0.7,1.1-1.6,1.4-2.6l32.4,10.2L46.2,59.8z M85.8,65.2
		c-2.3,0-4.1-1.9-4.1-4.1c0-2.3,1.9-4.1,4.1-4.1c2.3,0,4.1,1.9,4.1,4.1C89.9,63.3,88,65.2,85.8,65.2z"/>
	<path class="st0" d="M88.9,43c-2.3,0.9-3.8,2.1-3.6,4.7c-0.1-0.1-0.2-0.2-0.3-0.3c-0.5-2.1-1.6-3.4-4.3-3c2.4-0.9,3.5-2.5,3.6-5
		C84.8,41.8,86.1,43.2,88.9,43z"/>
	<path class="st0" d="M23.8,58.5c-1,0.1-1.8,0.4-2.1,1.4c0-0.1-0.1-0.1-0.1-0.2c0.1-0.9-0.2-1.6-1.3-1.8c1.1,0,1.8-0.5,2.1-1.6
		C22.3,57.5,22.7,58.2,23.8,58.5z"/>
	<path class="st0" d="M66.7,68.4c-1.9-0.4-3.4-0.3-4.5,1.5c0-0.1-0.1-0.2,0-0.3c0.6-1.6,0.5-3-1.5-3.9c2,0.5,3.5-0.1,4.6-1.7
		C64.6,65.8,64.8,67.3,66.7,68.4z"/>
	<path class="st0" d="M48.6,39.9c-1.6-0.4-2.8-0.2-3.7,1.2c0-0.1,0-0.2,0-0.3c0.5-1.4,0.4-2.5-1.2-3.3c1.6,0.4,2.9,0,3.8-1.4
		C46.8,37.7,47,38.9,48.6,39.9z"/>
</g>
</svg>
