<?xml version="1.0" encoding="utf-8"?>
<!-- Generator: Adobe Illustrator 24.1.0, SVG Export Plug-In . SVG Version: 6.00 Build 0)  -->
<svg version="1.1" id="Calque_1" xmlns="http://www.w3.org/2000/svg" xmlns:xlink="http://www.w3.org/1999/xlink" x="0px" y="0px"
	 viewBox="0 0 300 300" style="enable-background:new 0 0 300 300;" xml:space="preserve">
<g>
	<path d="M85.3,149.9c-0.4-35.1,29.1-64.6,64.5-64.8c35.5-0.2,64.7,28.8,64.9,64.3c0.3,36.2-28.2,65.2-64.1,65.5
		C114.4,215.2,85.7,186.6,85.3,149.9z M149.9,209.9c33.3,0,59.9-26.6,59.9-59.8c-0.1-33.3-26.5-59.9-59.8-60
		C117.2,90,90.4,117,90.4,150.4C90.3,183.2,117,209.9,149.9,209.9z"/>
	<path d="M152.5,177.3c5.8-5.2,10.1-9.4,14.7-13.2c1.1-0.9,3.1-0.7,4.6-1c-0.4,1.5-0.4,3.5-1.4,4.5c-6.5,6.2-13.3,12.1-20.4,18.6
		c-7.1-6.4-14-12.6-20.8-19c-0.9-0.8-0.7-2.7-1-4.1c1.4,0.2,3.3-0.1,4.2,0.7c4.7,3.9,9.2,8.1,15,13.4c0-4.4,0-7.3,0-10.1
		c0-12.4-0.1-24.8,0.1-37.2c0.1-2.5,1.6-5.1,2.5-7.6c0.8,2.6,2.2,5.2,2.2,7.8c0.2,13.2,0.1,26.4,0.2,39.6
		C152.5,171.7,152.5,173.7,152.5,177.3z"/>
</g>
</svg>
